<svg xmlns="http://www.w3.org/2000/svg" viewBox="0 0 48 48" width="48" height="48" fill="none" stroke="#453D35" stroke-width="2.4" stroke-linecap="round" stroke-linejoin="round" data-category="旅途">
  <title>手信</title>
  <path d="M 12.74,22.05 L 22.2,27.8 Q 24,28.9 25.8,27.8 L 35.26,22.05M24 28v9.6" stroke="#C23B22"/>
  <path d="M23.25 11.4C20.77 6.3 17.4 3.6 16.27 5.85C15.38 7.72 18.83 10.88 23.25 11.4M24.75 11.4C27.23 6.3 30.6 3.6 31.72 5.85C32.62 7.72 29.17 10.88 24.75 11.4" stroke="#C23B22"/>
  <path d="M12 15h24q4 0 3.4 4l-3 18.7q-.4 2.4-2.8 3.1c-6.4 1.9-12.8 1.9-19.2 0q-2.4-.7-2.8-3.1L8.6 19q-.6-4 3.4-4Z"/>
</svg>
