<svg xmlns="http://www.w3.org/2000/svg" viewBox="0 0 48 48" width="48" height="48" fill="none" stroke="#453D35" stroke-width="2.4" stroke-linecap="round" stroke-linejoin="round" data-category="饮食">
  <title>抹茶</title>
  <path d="M10 20v11c0 7 4 10 12 10s12-3 12-10V20M34 26.4h3c6 0 6 8 0 8h-3.4"/>
  <ellipse cx="22" cy="20" rx="12" ry="4" fill="#53765A" fill-opacity=".12"/>
  <path d="M7 42c7 4 23 4 30 0" stroke="#C23B22"/>
  <path d="M19 12c-3-3 4-4 1-8M26 11c-2-2 3-3 1-6" stroke="#8A6200"/>
  <path d="M16.6 34.7Q19.5 27.1 27.4 29.3Q24.5 36.9 16.6 34.7Z" stroke="#53765A"/>
</svg>
