<svg xmlns="http://www.w3.org/2000/svg" viewBox="0 0 48 48" width="48" height="48" fill="none" stroke="#453D35" stroke-width="2.4" stroke-linecap="round" stroke-linejoin="round" data-category="账本">
  <title>钱包</title>
  <path d="M11 16l19-6q3-1 4 2l2 6M10 16c-3 0-5 2-5 5v15c0 3 2 5 5 5h25q4 0 4-4V22q0-4-4-4H10c-3 0-5-1-5-3s2-4 5-4l19-6q3-1 4 2"/>
  <path d="M30 25h10q2 0 2 2v6q0 2-2 2H30a5 5 0 0 1 0-10Z" fill="#C23B22" fill-opacity=".12" stroke="#C23B22"/>
  <circle cx="32" cy="30" r="1.3" fill="#C23B22" stroke="none"/>
</svg>
